<?xml version="1.0" encoding="UTF-8" standalone="no"?>
<svg
   xmlns:dc="http://purl.org/dc/elements/1.1/"
   xmlns:cc="http://creativecommons.org/ns#"
   xmlns:rdf="http://www.w3.org/1999/02/22-rdf-syntax-ns#"
   xmlns:svg="http://www.w3.org/2000/svg"
   xmlns="http://www.w3.org/2000/svg"
   id="svg9"
   version="1.1"
   height="173.7562"
   width="239.21974"
   y="0"
   x="0">
  <metadata
     id="metadata15">
    <rdf:RDF>
      <cc:Work
         rdf:about="">
        <dc:format>image/svg+xml</dc:format>
        <dc:type
           rdf:resource="http://purl.org/dc/dcmitype/StillImage" />
      </cc:Work>
    </rdf:RDF>
  </metadata>
  <defs
     id="defs13" />
  <g
     transform="translate(-2.6287471e-4,-1.0478019)"
     id="g4"
     clip-path="url(#clip-path)">
    <path fill="#483B33" 
       id="path2"
       d="m 207.03,74.82 c -0.77,0.9 -3.85,2.06 -4.37,0.64 -0.51,-1.41 -1.93,2.19 -3.34,1.41 -1.41,-0.77 -5.27,-2.31 -5.52,-0.9 -0.26,1.42 -1.8,2.7 -2.44,1.93 -0.64,-0.77 -3.21,-3.6 -2.18,-4.37 1.03,-0.77 1.42,-2.95 -0.51,-2.31 -1.93,0.64 -1.54,-3.47 0,-4.24 0.99,-0.49 1.42,-1.03 2.31,0.39 0.89,1.42 2.19,-0.26 2.19,-1.28 0,-1.02 0.9,-2.44 1.8,-2.44 0.9,0 3.6,1.03 4.63,2.7 1.03,1.67 1.54,4.5 3.08,4.88 1.53,0.38 5.13,2.69 4.35,3.59 m -20.43,2.06 c -2.31,-0.9 -1.03,3.6 -3.98,1.93 -2.96,-1.67 -3.08,-2.44 -3.21,-3.98 -0.13,-1.54 -4.63,-1.67 -0.26,-3.85 1.16,-0.58 3.86,-0.77 3.73,0.51 -0.13,1.26 -3.6,2.17 0.26,2.44 3.6,0.26 -2.18,1.8 5.4,1.28 1.02,-0.07 0.38,2.57 -1.94,1.67 m -7.19,10.8 c -1.42,0.51 -1.93,1.28 -2.44,0.64 0,0 2.06,-2.95 2.83,-2.7 0.76,0.25 1.02,1.54 -0.39,2.06 m -3.09,3.85 c -1.67,1.8 -1.28,2.7 -0.64,3.85 0.64,1.16 -3.85,-2.18 -1.67,-5.14 0.61,-0.83 3.98,-0.51 2.31,1.29 m -3.6,-20.05 c -1.41,-0.51 -0.13,-3.21 0.64,-4.88 0.58,-1.25 0.77,-3.34 2.06,-1.67 1.29,1.67 0.64,3.47 -0.13,4.5 -0.77,1.02 0.34,3.11 -2.57,2.05 m -2.05,-2.14 c -0.9,0 -1.64,-0.65 -1.64,-1.45 0,-0.8 0.73,-1.45 1.64,-1.45 0.9,0 1.64,0.65 1.64,1.46 -0.01,0.79 -0.74,1.44 -1.64,1.44 m -0.13,26.04 c -0.51,0.64 -0.9,-1.67 -2.44,-1.54 -1.54,0.13 -3.21,-0.64 -2.31,-2.31 0,0 2.7,-0.9 3.73,0.64 1.02,1.54 1.53,2.57 1.02,3.21 m -5.14,-26.6 c -0.9,0.64 -0.9,-0.9 -3.6,0.64 -2.7,1.54 -2.83,-0.51 -2.31,-1.41 1,-1.75 1.67,-2.31 3.21,-2.31 1.54,0 4.5,-1.29 5.01,1.16 0.52,2.44 3.18,5.62 1.93,6.04 -3.08,1.02 -3.34,-4.76 -4.24,-4.12 m -3.38,43.26 c -1.99,-1.52 0.13,-1.82 0.13,-1.82 0,0 1.07,0.1 1.44,0.57 0.84,1.04 0.43,2.77 -1.57,1.25 m 1.02,12.83 c -0.96,0.69 -3.07,0.49 -1.9,-1.09 1.17,-1.59 2.13,-0.02 2.13,-0.02 0,0 0.19,0.8 -0.23,1.11 m -4.19,-16.38 c -0.64,-0.13 -3.08,-1.8 -4.88,-1.8 -1.8,0 -3.08,1.16 -3.47,-0.51 -0.2,-0.89 1.8,-2.06 2.7,-2.44 0.9,-0.38 2.7,-1.41 3.08,-2.44 0.38,-1.03 1.67,-1.41 2.06,0.64 0.39,2.06 5.14,3.6 4.63,5.01 -0.53,1.41 -3.48,1.67 -4.12,1.54 m 1.3,15.42 c 0,0 -0.64,0.51 -1.1,0.26 -1.03,-0.57 -1.75,-2.57 0.18,-2.18 1.93,0.38 0.92,1.92 0.92,1.92 m -3.87,-11.43 c -1.03,-0.64 -2.7,-0.39 -3.08,0.64 -0.39,1.03 -1.93,2.32 -3.21,0.9 -1.29,-1.41 -0.51,-4.62 1.8,-3.21 1.19,0.72 5.4,-2.31 5.91,-1.54 0.5,0.76 -0.4,3.85 -1.42,3.21 m 0.56,8.72 c -0.11,1.18 0.09,2.27 -0.82,1.55 -0.77,-0.6 -0.63,-4.07 0.49,-3.42 1.12,0.65 0.44,0.69 0.33,1.87 m -7.76,-66.42 c -1.8,1.16 -2.57,1.03 -3.47,0.9 -0.9,-0.13 -1.16,2.06 -2.06,0.13 -0.4,-0.85 3.34,-2.18 4.63,-2.18 1.28,0 2.31,-2.19 3.08,-1.03 0.77,1.16 0.77,3.6 -0.52,4.76 -2.06,1.85 -0.36,-3.42 -1.66,-2.58 m -4.92,53.78 c -2.01,-0.59 -5.42,0.65 -3.34,-1.81 1.58,-1.86 2.12,-4.57 3.76,-2.24 0.71,1 3,5.05 -0.42,4.05 m -0.09,9.83 c -1.29,-0.13 -3.35,-3.01 -2.7,-3.08 1.16,-0.13 2.44,-0.9 3.34,0.13 0.9,1.02 0.64,3.08 -0.64,2.95 m -5.27,6.16 c -2.44,3.86 -4.76,1.93 -5.27,1.41 -0.51,-0.51 -2.31,-4.11 -0.26,-5.52 1.27,-0.88 1.41,-3.47 3.47,-1.8 2.06,1.67 4.5,2.06 2.06,5.91 m -9.9,-20.17 c 1.13,-1.05 0.13,-3.08 2.57,-1.41 2.44,1.67 1.67,3.73 0.65,3.85 -1.03,0.13 -5.14,-0.64 -3.22,-2.44 m -2.95,-3.47 c -0.39,-1.54 -0.77,-2.57 0,-3.6 0.34,-0.46 2.31,-0.9 2.7,-0.26 0.39,0.64 2.31,0.77 2.44,1.93 0.13,1.16 -2.18,1.16 -2.7,1.67 -0.51,0.52 -2.05,1.8 -2.44,0.26 m 0.64,15.55 c -1.8,1.29 -3.85,2.44 -4.88,1.16 -1.03,-1.28 -2.18,-2.05 -3.47,-2.57 -1.28,-0.51 -0.9,-4.11 -0.38,-4.5 0.66,-0.49 2.06,-0.64 3.21,-0.51 1.16,0.13 4.63,0.26 5.78,2.57 1.15,2.31 1.54,2.56 -0.26,3.85 m -13.24,-19.4 c -0.64,-1.8 1.42,-3.73 1.67,-4.24 0.26,-0.51 2.06,-2.95 3.6,-1.67 1.55,1.29 -0.77,2.44 -0.9,3.47 -0.13,1.03 1.41,-0.38 2.32,3.22 0.9,3.6 -2.52,1.56 -3.47,2.57 -1.93,2.04 -2.57,-1.56 -3.22,-3.35 m -1.26,-28.7 c -1.01,-0.43 -0.63,-1.49 -0.19,-2.26 0.44,-0.77 1.3,-0.19 1.3,-0.19 0.05,0.24 1.4,1.69 1.01,2.17 -0.39,0.48 -1.11,0.72 -2.12,0.28 m -3.1,-16.8 c -1.41,0.26 -1.8,-2.18 0,-2.31 1.8,-0.13 2.7,2.96 2.57,3.34 -0.35,1.05 -1.16,-1.28 -2.57,-1.03 m 1.92,12.47 c 0,1.8 -0.51,2.96 -1.54,2.96 -1.03,0 -3.34,1.2 -4.24,1.28 -1.28,0.13 -0.13,0.51 -2.06,-0.9 -1.92,-1.41 -0.9,-0.51 0.39,-2.44 1.28,-1.93 2.06,-0.64 5.01,-1.93 2.96,-1.28 2.44,-0.77 2.44,1.03 m -4.75,55.13 c -1.03,0.13 -2.96,-2.06 -4.11,-1.93 -1.15,0.13 -2.06,2.31 -3.98,1.8 -1.93,-0.52 -3.09,-2.06 -2.95,-3.47 0.13,-1.41 -1.16,-2.31 0.13,-3.34 1.17,-0.94 3.08,2.7 4.5,1.41 1.41,-1.29 2.7,-1.03 4.11,-1.03 1.42,0 6.43,0.77 6.17,2.96 -0.27,2.18 -2.84,3.47 -3.87,3.6 M 93.69,101.94 c -1.44,-0.58 -2.44,-2.57 0.26,-2.19 2.7,0.39 1.29,1.93 1.29,1.93 0,0 -0.9,0.51 -1.55,0.26 m 2.2,0.27 c 0.98,-1.2 2.87,0.05 2.87,0.05 0.55,0.95 0.88,2.98 -0.24,2.51 -1.12,-0.47 -3.61,-1.36 -2.63,-2.56 M 109.5,79.83 c 0.65,1.03 0.65,2.19 -0.51,1.8 -1.16,-0.39 -1.8,0.39 -2.7,0.64 -0.9,0.26 -2.82,-0.45 -2.7,-1.54 0.26,-2.31 5.27,-1.92 5.91,-0.9 m -2.57,17.48 c 0.39,1.8 -0.13,2.57 -1.28,2.31 -1.16,-0.26 -1.54,1.41 -3.73,1.67 -2.19,0.26 -4.05,-3.15 -4.05,-4.18 0.77,-1.29 4.05,-1.35 5.46,-2.25 1.42,-0.89 3.21,0.65 3.6,2.45 M 96.91,81.25 c 0.26,-2.57 1.03,-0.64 2.44,0 1.42,0.64 4.24,1.54 0.26,2.44 -1.26,0.29 -2.96,0.13 -2.7,-2.44 m 2.44,-49.86 c 1.31,-1.31 1.03,1.16 3.34,1.29 2.31,0.13 6.03,0 5.91,1.54 -0.26,3.34 5.04,2.57 4.88,4.24 -0.26,2.83 -3.47,3.34 -3.85,4.11 -0.38,0.77 -2.96,0.26 -2.7,2.96 0.26,2.7 -2.06,-0.45 -2.44,-1.54 -0.77,-2.18 2.32,-3.34 1.8,-4.5 -0.51,-1.16 -2.57,2.06 -3.73,0.77 -1.16,-1.29 -2.57,-0.26 -1.54,-2.83 1.03,-2.57 0.39,-2.18 -0.9,-2.7 -1.28,-0.51 -1.28,-2.83 -0.77,-3.34 m 4.75,-5.14 c 1.67,0.39 4.88,1.03 4.5,2.83 -0.38,1.8 -1.67,2.31 -2.31,1.03 -0.64,-1.29 -0.13,-2.19 -2.44,-2.19 -2.31,0 -2.7,0.52 -2.7,-0.51 0,-0.82 1.28,-1.55 2.95,-1.16 m 12.85,19.92 c -0.98,1.43 -1.45,1.84 -1.63,1.94 0.16,0.03 0.5,0.3 0.73,1.79 0.38,2.44 -0.51,3.85 -0.9,3.47 -0.38,-0.39 -2.44,-1.54 -2.31,-3.6 0.13,-2.06 2.31,-3.34 0.39,-3.73 -1.93,-0.38 -2.18,0.9 -2.44,-1.03 -0.16,-1.17 -0.13,-1.67 2.7,-1.54 2.82,0.13 5.13,0.26 3.46,2.7 m 2.45,21.97 c 2.06,1.54 2.44,-1.03 3.34,0 0.9,1.03 0.39,2.57 -0.77,3.09 -1.16,0.51 -2.31,-0.39 -3.73,-0.39 -1.42,0 -1.41,-0.26 -1.28,-1.03 0.12,-0.76 0.38,-3.21 2.44,-1.67 m 2.05,-24.67 c 1.03,-1.41 0.39,-2.57 2.19,-2.18 1.8,0.39 1.28,3.21 1.16,4.24 -0.13,1.03 -1.93,0.9 -2.57,1.67 -0.64,0.77 -1.67,0.77 -1.93,-0.26 -0.26,-1.01 0.12,-2.06 1.15,-3.47 m 4.11,31.74 c -0.64,1.29 -1.67,3.22 -2.44,3.22 -0.77,0 -1.03,-1.41 -2.19,-2.06 -1.16,-0.64 -1.67,0 -1.54,-1.67 0.05,-0.64 0.77,-1.41 2.96,-1.16 2.18,0.26 3.85,0.38 3.21,1.67 m 0.52,-7.2 c 0.77,0.06 4.76,0.26 4.24,2.44 -0.52,2.19 -1.67,2.57 -2.7,2.57 -1.03,0 -1.41,-2.31 -2.31,-2.83 -0.9,-0.51 -1.03,-2.31 0.77,-2.18 m 2.44,-24.93 c 0.73,-0.18 -0.13,-4.5 0.77,-4.24 0.9,0.26 2.57,2.06 4.24,2.31 1.67,0.26 2.18,1.03 0.77,2.06 -1.41,1.03 -1.92,1.16 -2.06,2.44 -0.13,1.28 -1.67,1.54 -1.93,0.51 -0.26,-1.03 -1.03,-1.93 -1.8,-0.9 -0.76,1.04 -2.56,-1.53 0.01,-2.18 m 5.01,35.21 c -0.26,0.9 -0.26,2.19 -1.93,2.06 -1.67,-0.13 -5.01,1.16 -1.8,-2.31 0.76,-0.81 3.99,-0.65 3.73,0.25 m 3.73,-14.77 c 1.28,-0.64 1.67,3.34 0.51,3.47 -1.16,0.13 -4.37,1.41 -4.76,2.06 -0.38,0.64 -2.06,0.51 -2.06,-0.13 0,-3.08 1.8,-1.54 2.7,-1.54 0.91,-0.01 2.32,-3.22 3.61,-3.86 m 0.64,-6.43 c 0.77,-0.51 4.76,-1.03 4.5,0.26 -0.26,1.28 -2.96,3.34 -3.85,2.96 -0.91,-0.39 -1.42,-2.71 -0.65,-3.22 m 6.26,1.51 c 1,-1.77 1.69,-0.37 1.69,-0.37 0,0 0.11,0.76 -0.24,1.14 -0.79,0.84 -2.45,1 -1.45,-0.77 m 0.42,23.55 c 0,1.54 -1.29,1.54 -2.19,0.9 -0.9,-0.64 -1.8,-2.31 -3.98,-2.06 -2.18,0.25 -6.42,1.03 -2.95,-2.95 0.94,-1.08 2.44,-1.93 3.47,-1.16 1.03,0.77 1.93,3.73 2.96,2.96 1.02,-0.78 2.69,0.77 2.69,2.31 m -0.89,-30.2 c 1.15,1.03 -1.67,4.37 -2.83,2.96 -0.01,0 1.67,-3.99 2.83,-2.96 m 9.6,-6.23 c 1.07,0.41 0.56,1.75 -0.28,2.36 -0.85,0.6 -1.77,0.43 -1.77,0.43 -0.93,-1.59 0.98,-3.2 2.05,-2.79 m 0.16,-12.27 c -0.38,-1.41 1.42,-2.18 2.06,-1.41 0.64,0.77 2.31,3.21 1.16,3.73 -1.16,0.51 -3.6,3.08 -4.75,1.93 -1.11,-1.11 1.91,-2.84 1.53,-4.25 m 6.68,13.62 c 0.77,-0.64 2.31,0 0.52,0.77 -1.8,0.77 0.9,1.8 1.8,2.44 0.9,0.64 1.54,1.67 0.51,1.67 -1.03,0 -2.05,1.16 -3.34,1.41 -1.28,0.26 -3.21,-1.28 -3.6,-4.24 -0.39,-2.95 3.52,-1.56 4.11,-2.05 m -0.51,-18.25 c 1.67,-0.51 2.19,0.77 2.57,1.41 0.39,0.64 -3.08,3.09 -3.73,1.54 -0.35,-0.83 -0.51,-2.44 1.16,-2.95 m 4.49,28.01 c -0.51,0.64 -3.21,0.52 -3.86,1.42 -0.64,0.9 -3.47,0.9 -3.6,0.26 -0.13,-0.64 -0.64,-1.16 -0.26,-1.67 0.44,-0.58 4.63,0.39 5.4,-0.64 0.78,-1.04 2.84,-0.01 2.32,0.63 m -1.54,-11.56 c 0.13,-0.51 1.67,-1.29 1.54,0 -0.13,1.28 -0.77,1.41 -1.93,1.03 -1.15,-0.39 0.23,-0.36 0.39,-1.03 m 2.15,13.71 c 0.83,-1.17 1.4,-0.24 1.4,-0.24 0,0 0.1,0.5 -0.2,0.75 -0.66,0.56 -2.03,0.66 -1.2,-0.51 m 9.8,-14.61 c 0.49,-0.91 3.22,-0.13 2.83,0.77 -0.38,0.9 -0.38,3.34 -1.67,1.67 -1.29,-1.67 -2.18,-0.51 -1.16,-2.44 m 3.88,22.3 c 0.83,-1.17 1.4,-0.24 1.4,-0.24 0,0 0.1,0.51 -0.2,0.76 -0.65,0.55 -2.02,0.65 -1.2,-0.52 m 1.39,-20.76 c 0.93,-0.6 2.19,-2.7 1.67,-0.51 -0.52,2.18 2.83,0.51 1.54,2.83 -1.28,2.31 -2.31,2.44 -2.31,2.06 0,-0.38 1.67,-2.18 -0.38,-2.7 -2.06,-0.52 -3.09,-0.01 -0.52,-1.68 m 4.33,3.34 c 0.83,-1.17 1.4,-0.24 1.4,-0.24 0,0 0.09,0.51 -0.2,0.76 -0.66,0.55 -2.03,0.66 -1.2,-0.52 m 1.82,21.05 c 0,0 0.09,0.51 -0.2,0.76 -0.65,0.56 -2.02,0.66 -1.19,-0.51 0.82,-1.18 1.39,-0.25 1.39,-0.25 m 13.73,-6.65 c 0.82,-1.17 1.4,-0.24 1.4,-0.24 0,0 0.1,0.5 -0.2,0.76 -0.66,0.55 -2.03,0.65 -1.2,-0.52 m -13.91,50.15 c 1.39,-0.07 4.42,-0.37 4.01,1.27 -0.41,1.64 -3,1.31 -3,1.31 -1.05,-0.68 -2.4,-2.51 -1.01,-2.58 m 5.6,-8.26 c 0.54,-0.62 2.06,-0.9 2.7,0.13 0.64,1.03 1.16,1.16 2.06,1.16 0.9,0 0.9,1.16 0.39,2.19 -0.52,1.03 0.77,1.8 -0.9,2.44 -1.67,0.64 -1.28,2.31 -2.57,-0.13 -1.29,-2.44 0,-3.21 -1.15,-4.24 -1.18,-1.04 -1.43,-0.53 -0.53,-1.55 m 7.58,-2.57 c 0.87,-2 1.8,-1.93 2.18,-0.9 0.38,1.03 2.19,4.24 0.64,4.37 -1.54,0.13 -0.9,2.7 -2.44,1.54 -1.54,-1.16 -2.31,-1.03 -2.57,-2.57 -0.25,-1.54 1.29,-0.39 2.19,-2.44 m 17.94,8.93 c 0.73,0.37 0.38,1.6 -0.19,2.14 -0.57,0.55 -1.2,0.4 -1.2,0.4 -0.64,-1.45 0.66,-2.91 1.39,-2.54 m -126.65,1.6 c -2.06,-0.51 -3.47,-1.28 -3.73,-3.21 -0.26,-1.93 -2.57,-4.5 -2.06,-5.27 0.51,-0.77 1.16,-1.03 1.41,-1.54 0.57,-1.14 1.8,-2.44 2.83,-0.64 1.03,1.8 2.57,2.7 2.7,4.11 0.13,1.41 0.9,7.07 -1.15,6.55 m -6.17,6.69 c -1.41,0.26 -3.69,-0.8 -1.54,-1.54 3.34,-1.16 0,-3.73 -1.29,-4.11 -1.28,-0.38 -3.47,-0.38 -4.24,-2.05 -0.77,-1.67 -3.08,0.13 -3.21,0.77 -0.13,0.64 -0.9,2.32 -2.31,2.06 -1.41,-0.26 -1.8,0.52 -1.28,-0.9 0.22,-0.6 2.19,-0.26 2.31,-1.29 0.13,-1.03 0.64,-2.31 1.67,-2.31 1.03,0 2.44,-1.8 3.98,-1.41 1.54,0.38 3.47,3.47 4.24,4.37 0.77,0.9 4.63,3.21 6.17,4.63 1.54,1.42 2.31,0.52 2.31,1.67 0,1.15 -5.4,-0.15 -6.81,0.11 M 69.54,94.48 C 68.9,92.94 69.03,95.9 68,95.38 66.97,94.87 66.84,95 66.97,94.1 c 0.08,-0.53 0.77,-1.16 2.44,-1.29 1.67,-0.13 3.99,2.57 3.47,3.08 -0.52,0.52 -2.7,0.14 -3.34,-1.41 m -3.09,24.04 c 0.13,1.8 -2.83,1.93 -3.21,1.41 -0.45,-0.6 -0.77,-2.57 0.51,-3.86 1.28,-1.28 5.4,-1.8 5.14,-0.9 -0.25,0.9 -2.57,1.55 -2.44,3.35 M 62.6,89.6 c 0.13,-0.64 -1.16,-2.31 -0.39,-2.95 0.7,-0.58 3.86,1.29 2.7,2.19 -1.16,0.89 -2.44,1.4 -2.31,0.76 m -0.9,3.99 c -0.9,-0.26 -1.54,-1.16 -1.15,-1.93 0.37,-0.74 1.41,-0.9 1.93,0 0.5,0.9 0.12,2.18 -0.78,1.93 m -0.13,23.64 c -1.8,2.31 -3.34,1.93 -2.06,-0.38 0.63,-1.13 3.86,-1.93 2.06,0.38 m -0.26,5.01 c -1.8,2.31 -3.34,1.93 -2.06,-0.38 0.63,-1.13 3.86,-1.93 2.06,0.38 M 57.97,97.83 c -0.51,-0.9 -0.26,-1.8 -0.26,-1.8 1.67,-0.77 3.08,1.29 2.57,2.31 -0.51,1.03 -1.8,0.39 -2.31,-0.51 M 59.51,56.7 c -0.77,-1.8 -2.05,-3.34 -0.77,-4.5 0.61,-0.55 3.09,0 3.34,0.64 0.26,0.64 1.93,3.85 1.29,4.62 -0.64,0.79 -3.09,1.04 -3.86,-0.76 M 56.17,37.43 c 0.37,-0.73 3.34,1.8 2.44,2.96 -0.9,1.15 -3.08,-1.68 -2.44,-2.96 m 13.75,52.81 c -0.64,0.26 -3.98,0.77 -4.24,-0.64 0.02,0.11 3.47,-3.22 4.24,-3.08 1.41,0.25 0.64,3.47 0,3.72 m 0,-16.44 c 0,0.77 0.39,2.18 -1.54,1.93 -1.93,-0.26 -3.47,-0.77 -3.34,-1.93 0.13,-1.16 1.42,-1.54 2.57,-1.54 1.15,0 2.57,-2.06 3.21,-1.16 0.64,0.9 -0.9,1.92 -0.9,2.7 m 4.11,-23.26 c 0.51,1.54 1.29,1.8 0.13,3.08 -1.16,1.28 1.54,3.21 -0.64,3.73 -2.18,0.51 -2.7,-2.19 -4.63,-2.31 -1.93,-0.13 -4.88,-0.77 -4.88,-2.18 0,-1.41 -2.44,-2.19 -1.67,-4.11 0.34,-0.84 3.6,0.26 4.11,-0.51 0.51,-0.77 1.67,-0.64 1.93,1.03 0.26,1.67 1.42,1.8 2.44,0.9 1.03,-0.92 2.7,-1.17 3.21,0.37 m 3.35,20.56 c 1.15,-0.13 1.54,-2.18 2.96,-1.93 1.41,0.26 1.8,-3.73 3.47,-2.06 1.67,1.67 -2.57,2.44 -2.7,5.14 -0.13,2.7 -3.34,2.06 -3.86,1.03 -0.51,-1.03 -1.28,-1.67 -2.18,-0.38 -0.9,1.29 -3.21,1.67 -2.57,-0.13 0.64,-1.8 0.64,-2.31 0.64,-2.31 0.26,-0.77 -1.03,-2.18 0.39,-2.44 1.4,-0.26 2.69,3.21 3.85,3.08 M 76.47,56.83 c 0.83,-1.25 3.34,-0.64 4.88,-0.51 1.54,0.13 1.67,1.93 0.77,2.7 -0.9,0.77 -0.26,4.11 -2.31,3.09 -2.05,-1.04 -5.39,-2.19 -3.34,-5.28 m -2.56,30.2 c 0.4,-0.5 2.57,0.39 3.08,0.26 0.52,-0.13 0.26,2.44 -0.64,2.96 -0.9,0.51 -2.7,0.9 -2.7,0.13 0,-0.78 -0.26,-2.7 0.26,-3.35 m 0.64,21.98 c 0,1.16 -2.31,0.9 -2.7,0.13 0,0 2.7,-1.29 2.7,-0.13 m -0.26,-4.37 c 0,-2.19 -2.95,1.42 -1.93,-2.31 0.25,-0.89 1.8,-0.26 2.7,-1.93 0.9,-1.67 1.8,-1.41 3.08,-0.51 1.29,0.9 3.21,2.18 2.7,3.21 -0.51,1.03 1.67,4.5 0.9,5.27 -0.77,0.77 -4.11,0 -4.63,-1.15 -0.51,-1.17 -2.82,-0.4 -2.82,-2.58 M 84.56,79.02 c 0,0 -0.94,3.55 -2.45,2.71 -1.51,-0.83 1.06,-2.89 2.45,-2.71 m 1.29,-2.01 c 0.77,-0.51 2.44,-1.8 2.57,-0.9 0.13,0.9 0,1.8 -0.64,2.83 -0.64,1.03 -2.18,1.28 -2.7,0.39 -0.51,-0.91 0.77,-2.32 0.77,-2.32 m 1.93,-10.28 c 1.03,-0.38 3.08,-0.38 2.44,0.64 -0.64,1.03 -1.93,3.34 -2.96,2.18 -1.02,-1.15 0.52,-2.82 0.52,-2.82 m -33.54,26.6 c -0.77,0.39 -0.77,-1.54 -0.77,-1.54 0.52,-0.13 1.54,1.15 0.77,1.54 M 45.38,80.74 c -1.41,0.9 -6.42,2.18 -6.55,-1.16 -0.04,-1.1 2.31,-1.54 4.5,-1.15 2.18,0.38 3.46,1.4 2.05,2.31 m -6.56,9.5 c -0.64,1.67 -1.67,2.44 -2.7,1.54 -1.03,-0.9 -1.67,-0.64 -2.7,-1.15 -1.03,-0.51 1.41,-1.54 1.16,-2.19 -0.26,-0.64 0.39,-1.03 0.39,-1.03 1.28,-0.38 2.44,0.77 3.47,0.39 1.03,-0.38 1.03,0.77 0.38,2.44 M 237.11,73.67 c -0.38,-2.19 -2.7,-3.85 -5.27,-0.77 -2.57,3.08 -1.6,0.03 -4.11,1.28 -2.83,1.41 -3.34,0.51 -5.52,-1.16 -1.18,-0.9 -1.41,-5.91 -3.31,-3.25 -2.67,3.75 -1.93,-1.8 -3.12,-2.28 -2.57,-1.03 -4.37,0.77 -5.4,1.93 -1.03,1.16 -4.63,0.64 -6.17,-2.06 -1.54,-2.7 1.16,-3.47 1.93,-2.18 0.77,1.29 3.6,-0.13 2.18,-2.06 -1.41,-1.93 5.14,-2.7 7.58,-3.6 2.44,-0.9 0,-2.31 -2.06,-2.18 -2.06,0.13 -3.21,0.39 -4.11,-2.06 -0.9,-2.44 -1.93,-1.8 -2.44,-1.28 -0.51,0.51 -1.28,2.44 -4.11,0.26 -2.83,-2.18 1.03,-3.34 2.31,-2.18 1.28,1.16 1.93,-3.21 4.11,-3.08 2.18,0.13 5.27,1.28 7.45,1.16 2.19,-0.13 3.47,1.41 0.9,1.8 -2.57,0.38 -1.93,2.7 -0.77,3.34 1.16,0.64 3.08,-2.7 4.88,-1.41 1.8,1.29 3.73,-0.51 6.81,1.03 3.08,1.54 3.08,0.39 4.5,-0.26 1.41,-0.64 3.34,-1.28 3.21,-2.95 -0.13,-1.67 -3.34,0 -4.88,-2.96 -0.98,-1.87 -3.21,-1.03 -5.52,-0.64 -2.31,0.39 -3.47,2.7 -4.37,0.9 -0.9,-1.8 5.78,-4.11 6.17,-5.78 0.39,-1.67 -1.29,0.51 -1.93,-1.67 -0.64,-2.18 -2.06,-1.54 -4.11,-1.41 -2.06,0.13 -3.08,-1.8 -4.62,-1.93 -1.54,-0.13 -2.7,2.7 -5.4,2.57 -2.7,-0.13 -1.8,-2.44 -3.47,-4.11 -1.67,-1.67 0.39,-4.11 1.93,-0.9 1.54,3.21 2.06,1.67 3.47,0.77 1.42,-0.9 2.83,-2.31 5.27,-0.13 2.44,2.18 2.05,0.39 3.6,-0.39 1.54,-0.77 1.93,-2.44 0.9,-2.44 -1.03,0 -6.04,-0.77 -3.34,-2.06 1.98,-0.94 1.54,-1.47 0.19,-2.61 -0.93,-0.78 -1.95,-0.43 -1.73,-1.51 0.1,-0.48 -1.51,-2.24 -2.68,-2.02 -1.17,0.22 -3.95,1.04 -3.61,-2.35 0.26,-2.57 -0.95,-0.35 -2.25,-0.51 -1.3,-0.16 -2.44,2.63 -3.15,0.13 -0.84,-2.99 -4.21,0.85 -4.38,0.69 -0.27,-0.26 -0.63,2.18 -2.2,1.97 -1.58,-0.22 -4.05,2.86 -3.65,0.84 0.4,-2.02 -0.88,0.05 -1.33,0.1 -2.31,0.26 -5.27,1.8 -0.9,4.75 4.37,2.96 0.13,2.7 -2.44,3.34 -2.57,0.64 -1.29,2.7 -0.26,3.86 1.03,1.16 -0.77,4.11 -2.06,1.29 -1.28,-2.83 -2.06,-1.16 -3.73,0.13 -1.67,1.28 -1.03,-1.67 -0.26,-1.67 0.77,0 1.03,0.13 2.19,-3.34 1.16,-3.47 -5.65,-7.58 -5.91,-9.9 -0.26,-2.31 -1.67,-4.24 -3.08,-3.08 -1.41,1.16 -2.44,0.64 -3.98,-1.16 -1.54,-1.8 -2.06,1.03 -2.96,0.77 -0.9,-0.26 -2.83,-0.26 -4.88,1.29 -5.38,4.04 1.41,3.21 2.44,4.37 2.32,2.61 -0.64,3.6 -2.06,1.93 -1.41,-1.67 -1.8,-0.38 -2.7,-0.26 -0.9,0.13 -2.19,-0.64 -3.08,-1.54 -0.9,-0.9 -2.44,-2.31 -3.73,-0.51 -1.28,1.8 -2.69,0.9 -5.14,-1.54 -2.44,-2.44 -2.82,-0.64 -3.21,0.9 -0.38,1.54 -3.6,1.28 -4.63,1.54 -1.03,0.26 -3.47,3.98 -5.78,-0.77 -2.31,-4.75 2.06,-4.88 4.88,-4.24 2.83,0.64 0.64,-3.73 4.63,-3.47 3.98,0.26 1.29,1.03 5.01,2.31 3.73,1.29 1.93,-2.44 4.76,-2.18 2.83,0.26 1.28,-2.06 5.01,-4.24 2.21,-1.29 -3.21,-3.21 -6.04,-2.57 -2.83,0.64 -3.08,-0.64 -4.76,-1.54 -1.67,-0.9 -3.73,-1.16 -5.14,0.26 -3.6,3.6 -3.47,0.13 -3.47,-1.54 0,-1.67 -5.52,-4.75 -8.22,-5.14 -2.7,-0.39 -7.45,4.75 -8.87,3.08 -1.41,-1.67 -3.08,-0.38 -6.55,0 -3.47,0.39 -1.8,1.67 -0.13,3.09 1.67,1.41 -1.03,1.54 -2.44,1.28 -1.41,-0.26 -2.69,1.67 1.03,2.57 3.73,0.9 0.64,2.06 -0.77,2.06 -1.41,0 -3.47,1.29 -5.52,3.86 -2.06,2.57 -3.47,1.93 -5.78,1.41 -2.31,-0.51 0,-5.14 1.29,-4.88 1.28,0.26 5.01,-2.06 4.11,-4.5 -0.9,-2.44 -0.9,-1.8 1.93,-3.85 2.83,-2.06 0,-3.73 -1.28,-4.24 -1.29,-0.51 -3.6,2.31 -4.88,0.77 -1.28,-1.54 -2.57,-1.54 -4.11,-1.54 -1.54,0 -1.37,2.62 -3.34,0.77 C 100.17,3.71 99.56,3.34 98.88,3.06 98.2,2.78 97,1.73 96.67,2.46 95.93,4.07 93.88,-1.46 93.62,2.52 93.55,3.62 92.21,2.91 91.69,2.26 90.96,1.35 89.63,3.03 88.79,2.81 87.29,2.41 86.4,3.93 85.65,3.68 84.49,3.29 81.32,0.26 79.87,3.29 c -1.41,2.96 2.31,1.03 1.93,2.96 -0.39,1.93 1.8,3.21 0.64,4.5 -1.16,1.29 -5.52,2.06 -8.35,-0.13 -2.83,-2.18 -4.24,1.93 -4.76,4.11 -0.51,2.19 4.11,1.67 4.76,2.96 0.64,1.28 5.4,-0.9 8.61,0.51 3.21,1.42 -2.7,1.29 -2.96,2.44 -0.25,1.16 2.7,-0.26 3.47,1.54 0.77,1.8 2.06,0 4.11,1.67 2.06,1.67 3.73,0.39 5.53,-0.51 1.8,-0.9 4.11,1.28 3.86,2.57 -0.26,1.28 -1.67,0.9 -2.83,2.18 -1.15,1.29 -2.83,-2.18 -4.63,0.64 -1.8,2.83 3.47,0.13 4.24,1.8 0.77,1.67 2.44,1.41 2.83,2.05 0.39,0.64 -2.7,2.7 -4.5,3.6 -1.8,0.9 -3.21,1.93 -6.3,1.41 -3.08,-0.51 1.54,-4.5 -2.31,-4.88 -1.16,-0.12 -3.98,-1.03 -3.73,-2.7 0.26,-1.67 -5.27,-7.32 -6.81,-8.61 -1.54,-1.29 0.39,5.01 -1.8,4.88 -2.18,-0.13 -5.01,-4.5 -8.87,-7.2 -1.82,-1.27 -3.73,-0.39 -5.38,-0.97 -0.89,-0.31 -2.4,1.74 -2.64,0.78 -0.97,-3.93 -2.12,1.08 -2.77,0.57 -0.99,-0.79 -1.49,1.53 -2.7,0.64 -0.98,-0.72 -1.09,1.63 -1.28,3.6 -0.38,3.86 -2.06,1.54 -6.04,2.18 -3.98,0.64 -3.98,5.01 -3.73,6.55 0.26,1.54 -0.64,2.83 -2.95,1.93 -2.31,-0.9 0.13,-2.83 -1.93,-3.6 -2.06,-0.77 -6.94,5.4 -6.94,6.81 0,1.41 3.86,-0.77 6.04,2.44 1.29,1.89 5.27,-0.39 6.68,1.03 1.41,1.41 5.53,-1.67 6.68,-3.08 1.16,-1.41 3.73,-1.67 5.53,-1.93 1.8,-0.26 2.06,2.96 2.06,3.99 0,1.03 3.34,0.26 2.19,3.34 -0.49,1.29 -1.93,1.03 -7.32,1.41 -5.4,0.39 1.16,2.06 0.9,3.34 -0.26,1.29 -5.01,0.77 -6.3,2.31 -1.28,1.54 4.24,4.88 6.17,5.65 1.93,0.77 6.94,-3.6 8.1,-2.31 1.16,1.29 1.8,3.34 3.85,5.01 2.06,1.67 2.96,2.06 0,5.01 C 57.2,66.73 52.44,63 52.44,63 c -3.08,-0.64 -4.75,-2.31 -6.55,0.39 -1.11,1.67 -0.51,4.11 -2.06,5.27 -1.54,1.16 -2.81,-2.19 -5.14,-1.93 -4.34,0.48 -4.14,-3.56 -6.17,-4.24 -1.28,-0.43 -5.56,3.86 -5.4,-1.07 0.2,-5.96 -3.16,0.05 -4.24,-0.85 -2.41,-2.02 -4.14,2.7 -5.29,-0.58 -0.45,-1.27 -2.58,0.56 -3.45,1.1 -2.06,1.28 0,5.14 -2.18,5.27 -2.18,0.13 -1.54,1.28 -3.08,2.7 -1.54,1.41 0,3.08 -0.9,3.73 -0.9,0.64 -0.73,2.64 -0.26,2.96 1.16,0.77 1.41,-3.85 2.83,-0.77 1.42,3.08 -3.47,3.86 -4.24,2.7 -0.77,-1.16 -1.8,-4.5 -2.57,-1.16 -0.61,2.66 -3.98,3.6 -3.73,4.88 0.5,2.5 3.73,0.39 5.91,-0.39 2.19,-0.77 2.06,3.21 2.06,5.78 0,2.57 2.96,1.8 3.73,2.44 0.77,0.64 1.93,1.54 3.34,1.67 1.41,0.13 2.83,-2.44 0.13,-2.83 -2.7,-0.38 0,-2.31 -3.08,-2.06 -3.08,0.26 -1.28,-2.7 -0.51,-1.8 0.77,0.9 3.6,0.26 5.91,0.64 2.31,0.39 2.83,3.73 4.88,3.6 1.03,-0.06 2.31,-0.26 2.44,1.16 0.13,1.42 -1.16,3.6 -0.38,3.86 0.5,0.17 0.77,-2.31 2.7,-2.96 1.93,-0.64 1.42,2.83 1.8,4.76 0.38,1.93 -1.93,0.26 -2.19,2.96 -0.26,2.7 1.42,1.67 2.83,0.64 3.86,-2.8 2.7,1.8 4.75,2.06 3.88,0.48 2.95,-2.44 5.27,-2.96 2.31,-0.51 3.6,-1.28 4.75,-2.31 1.16,-1.03 3.47,-1.28 5.65,0.77 2.18,2.06 2.96,2.44 4.63,1.67 2.23,-1.03 1.8,1.8 0.9,2.83 -0.9,1.03 -6.17,0.77 -9,0.39 -2.82,-0.39 -4.88,2.19 -3.47,2.44 1.41,0.26 3.47,1.54 1.8,2.31 -1.67,0.77 -1.28,2.31 -2.95,2.18 -1.67,-0.13 -3.47,-3.85 -5.4,0.52 -1.93,4.37 3.34,7.2 7.45,5.65 4.11,-1.54 5.4,-0.13 5.91,1.41 0.51,1.54 5.4,2.76 5.4,2.76 2.31,5.01 -2.12,0.96 -3.47,0.58 -1.35,-0.38 -2.89,2.7 -5.78,2.31 -2.89,-0.39 -3.85,0.97 -3.08,1.54 0.77,0.58 2.32,2.12 0,3.08 -2.31,0.96 -1.16,3.66 -2.31,4.82 -1.16,1.16 -0.58,3.09 1.54,3.09 2.12,0 7.33,-0.38 8.1,0.96 0.77,1.35 6.17,0 6.17,0 5.21,0 -0.38,3.08 0.19,4.63 0.58,1.54 10.99,-0.39 13.11,0.96 2.12,1.35 -0.38,4.43 0.97,5.2 1.35,0.77 4.24,-2.7 2.7,-5.4 -1.54,-2.7 0.96,-1.54 0.39,-4.05 -0.58,-2.5 5.2,-4.05 7.9,-3.66 2.7,0.39 4.63,-0.58 4.24,2.31 -0.39,2.89 2.89,0.58 4.43,1.16 1.54,0.58 1.54,-2.12 -0.19,-3.28 -1.73,-1.15 1.54,-2.89 2.51,-3.47 0.96,-0.58 -2.31,-1.73 3.28,-3.86 5.59,-2.12 9.83,0.58 13.88,3.47 4.05,2.89 2.31,10.8 1.16,15.61 -1.16,4.82 -3.48,8 -4.82,10.41 -2.01,3.6 -4.74,5.23 -9.55,5.97 -38.51,3.36 -53.1,14.08 -53.1,14.08 0,0 29.1,-12.53 79.99,-12.53 37.64,0 75.34,12.53 75.34,12.53 0,0 -19.07,-9.84 -53.88,-14.15 -1.83,-1.28 -2.08,-1.8 -2.31,-2.86 -0.26,-1.16 -2.83,-2.65 -4.76,-5.22 -1.92,-2.57 -1.41,-6.55 0.13,-10.02 1.54,-3.47 2.7,-8.87 6.04,-10.28 3.34,-1.41 2.44,-3.21 3.34,-3.98 0.9,-0.77 2.96,-2.95 4.11,-0.39 1.16,2.57 -1.67,0.13 -3.85,1.93 -2.19,1.8 1.8,1.42 2.44,3.21 0.64,1.8 3.08,1.8 4.24,1.54 1.16,-0.26 2.06,0.39 1.29,1.54 -0.77,1.16 -1.41,1.8 -1.03,3.21 0.39,1.41 2.7,1.03 3.98,-0.26 1.28,-1.29 0.77,-1.54 2.06,-0.39 1.29,1.16 1.03,-1.29 2.83,-1.8 1.8,-0.52 1.03,-1.16 1.67,-2.19 0.65,-1.03 2.44,-0.9 3.47,-0.13 1.03,0.77 0.26,3.09 0.9,1.42 0.64,-1.67 2.19,-0.26 2.19,-0.26 1.67,2.06 2.06,-1.03 4.24,-0.64 3.82,0.67 3.47,-0.38 5.4,-1.15 1.93,-0.77 2.06,-1.29 3.21,0.77 1.16,2.06 1.03,1.29 4.63,1.42 3.6,0.13 6.3,-4.11 7.45,-5.65 1.16,-1.54 2.44,-1.41 1.42,-4.76 -1.03,-3.34 -3.47,0.9 -4.5,-2.44 -1.03,-3.34 -3.85,-0.9 -4.75,-3.47 -0.9,-2.57 3.09,-1.03 4.24,-1.67 1.16,-0.64 2.31,2.7 3.99,2.57 1.67,-0.13 3.85,1.54 5.01,0.26 1.16,-1.28 -1.28,-1.93 -2.44,-3.6 -1.16,-1.67 1.67,-1.67 2.83,-0.64 1.16,1.03 1.67,0.52 3.98,0.64 2.32,0.13 3.08,2.96 3.98,1.93 0.9,-1.03 -1.8,-1.67 0.9,-3.47 2.7,-1.8 2.57,-0.25 4.89,-0.13 2.31,0.13 2.57,-3.47 3.47,-5.27 0.9,-1.8 0.51,-2.57 -1.16,-3.34 -1.67,-0.77 -2.18,0.77 -2.96,-1.67 -0.77,-2.44 -2.18,-2.83 -3.85,-2.18 -1.67,0.64 -5.4,-0.39 -5.27,-2.19 0.13,-1.8 -3.21,-2.44 -5.27,-2.7 -2.06,-0.26 -4.11,-0.39 -4.5,-2.19 -0.38,-1.8 -1.28,-2.18 -3.34,-2.18 -2.06,0 -2.7,0.64 -4.24,-1.41 -1.54,-2.06 -3.73,-1.16 -5.4,0.26 -1.67,1.41 -0.77,2.96 -2.7,3.47 -1.93,0.52 -2.44,-2.57 -0.64,-3.98 1.8,-1.41 2.7,-0.9 1.67,-2.57 -1.03,-1.67 0,-1.16 0.9,-2.83 0.9,-1.67 2.7,-0.51 2.83,1.41 0.13,1.93 3.21,1.03 4.63,0.9 1.41,-0.13 3.34,-0.9 3.6,0.77 0.26,1.67 1.93,1.16 4.63,0.13 2.7,-1.03 5.53,2.19 6.55,2.44 1.03,0.26 0.64,-1.67 2.18,-3.21 1.2,-1.19 -1.15,-0.64 -1.8,-2.57 -0.64,-1.93 1.28,-2.18 3.86,-0.39 2.57,1.8 1.41,3.34 2.83,3.99 1.41,0.64 3.21,2.7 5.91,0 2.7,-2.7 2.7,-0.51 5.4,-2.19 2.7,-1.67 5.4,0 6.55,-1.67 1.16,-1.67 1.29,-1.41 4.88,0 3.6,1.41 2.31,-1.03 2.19,-5.91 -0.13,-4.88 2.06,-2.7 2.06,-4.5 0,-1.8 -1.73,-0.51 -2.11,-2.69"
       />
  </g>
  <clipPath
     id="clip-path">
    <path
       style="fill:#483B33;transform-origin: 50% 90%;animation: treescale 5s infinite ease-out;"
       id="path6"
       d="m 232.009,72.205 c -2.574,3.095 -1.604,0.029 -4.117,1.29 -2.828,1.419 -3.344,0.516 -5.529,-1.162 -1.18,-0.904 -1.416,-5.936 -3.312,-3.263 -2.672,3.768 -1.934,-1.811 -3.119,-2.286 -2.57,-1.031 -4.371,0.774 -5.402,1.937 -1.027,1.162 -4.629,0.645 -6.172,-2.066 -1.543,-2.71 1.158,-3.485 1.932,-2.193 0.77,1.292 3.6,-0.129 2.186,-2.066 -1.416,-1.935 5.143,-2.707 7.585,-3.613 2.444,-0.903 0,-2.323 -2.058,-2.193 -2.057,0.127 -3.215,0.388 -4.113,-2.066 -0.9,-2.45 -1.93,-1.805 -2.445,-1.288 -0.516,0.514 -1.285,2.45 -4.113,0.257 -2.828,-2.193 1.027,-3.356 2.314,-2.193 1.283,1.161 1.928,-3.229 4.115,-3.097 2.186,0.127 5.272,1.288 7.457,1.16 2.187,-0.129 3.475,1.419 0.9,1.807 -2.57,0.387 -1.928,2.709 -0.771,3.354 1.158,0.645 3.086,-2.71 4.887,-1.419 1.804,1.29 3.73,-0.516 6.817,1.033 3.086,1.548 3.086,0.386 4.502,-0.258 1.412,-0.644 3.344,-1.29 3.213,-2.968 -0.128,-1.678 -3.345,0 -4.888,-2.97 -0.976,-1.876 -3.214,-1.031 -5.528,-0.645 -2.312,0.388 -3.472,2.711 -4.372,0.905 -0.901,-1.809 5.783,-4.13 6.172,-5.808 0.386,-1.679 -1.287,0.516 -1.928,-1.679 -0.643,-2.193 -2.059,-1.547 -4.117,-1.419 -2.057,0.129 -3.086,-1.805 -4.629,-1.936 -1.543,-0.128 -2.699,2.71 -5.4,2.581 -2.701,-0.127 -1.801,-2.45 -3.473,-4.13 -1.674,-1.676 0.387,-4.13 1.928,-0.902 1.545,3.225 2.059,1.676 3.473,0.774 1.416,-0.903 2.83,-2.323 5.274,-0.129 2.442,2.193 2.055,0.388 3.601,-0.389 1.543,-0.774 1.929,-2.45 0.899,-2.45 -1.027,0 -6.043,-0.774 -3.345,-2.066 1.985,-0.949 1.54,-1.479 0.191,-2.618 -0.926,-0.782 -1.95,-0.432 -1.734,-1.512 0.101,-0.483 -1.508,-2.25 -2.684,-2.028 -1.173,0.223 -3.954,1.048 -3.617,-2.361 0.258,-2.581 -0.951,-0.35 -2.251,-0.514 -1.3,-0.166 -2.441,2.646 -3.149,0.128 -0.844,-3.004 -4.214,0.854 -4.381,0.69 -0.273,-0.26 -0.627,2.193 -2.205,1.979 -1.582,-0.217 -4.051,2.871 -3.65,0.843 0.398,-2.029 -0.883,0.051 -1.337,0.102 -2.316,0.257 -5.275,1.805 -0.901,4.773 4.373,2.97 0.129,2.711 -2.442,3.356 -2.573,0.646 -1.288,2.711 -0.258,3.872 1.028,1.162 -0.771,4.13 -2.058,1.292 -1.285,-2.84 -2.059,-1.161 -3.729,0.129 -1.674,1.29 -1.028,-1.678 -0.258,-1.678 0.771,0 1.029,0.129 2.187,-3.354 1.156,-3.485 -5.66,-7.615 -5.916,-9.938 -0.258,-2.324 -1.67,-4.261 -3.086,-3.099 -1.417,1.162 -2.444,0.645 -3.987,-1.163 -1.543,-1.805 -2.059,1.033 -2.959,0.776 -0.899,-0.258 -2.828,-0.258 -4.887,1.292 -5.384,4.052 1.416,3.225 2.445,4.387 2.324,2.624 -0.644,3.615 -2.059,1.935 -1.414,-1.678 -1.801,-0.386 -2.699,-0.257 -0.9,0.128 -2.188,-0.647 -3.086,-1.548 -0.9,-0.905 -2.445,-2.323 -3.732,-0.518 -1.283,1.805 -2.697,0.903 -5.144,-1.548 -2.44,-2.45 -2.826,-0.645 -3.214,0.904 -0.386,1.548 -3.601,1.29 -4.63,1.548 -1.027,0.259 -3.471,4 -5.788,-0.774 -2.313,-4.775 2.06,-4.904 4.887,-4.259 2.83,0.645 0.643,-3.742 4.63,-3.485 3.987,0.261 1.289,1.035 5.015,2.324 3.732,1.292 1.932,-2.452 4.76,-2.193 2.828,0.257 1.285,-2.066 5.016,-4.26 2.209,-1.301 -3.215,-3.226 -6.043,-2.581 -2.832,0.645 -3.086,-0.645 -4.76,-1.549 -1.671,-0.903 -3.729,-1.162 -5.144,0.257 -3.604,3.618 -3.474,0.13 -3.474,-1.549 0,-1.676 -5.529,-4.773 -8.228,-5.161 -2.702,-0.388 -7.46,4.775 -8.876,3.097 -1.414,-1.677 -3.086,-0.386 -6.557,0 -3.475,0.389 -1.8,1.678 -0.129,3.099 1.672,1.417 -1.029,1.549 -2.445,1.288 -1.413,-0.257 -2.698,1.68 1.031,2.582 3.729,0.903 0.643,2.066 -0.773,2.066 -1.416,0 -3.471,1.292 -5.529,3.872 -2.06,2.581 -3.472,1.937 -5.788,1.419 -2.312,-0.516 0,-5.162 1.288,-4.903 1.285,0.257 5.016,-2.067 4.115,-4.518 -0.9,-2.452 -0.9,-1.805 1.929,-3.871 2.828,-2.064 0,-3.742 -1.285,-4.259 -1.288,-0.516 -3.602,2.322 -4.887,0.774 -1.285,-1.548 -2.57,-1.548 -4.114,-1.548 -1.543,0 -1.375,2.629 -3.346,0.774 C 100.194,2.676 99.584,2.307 98.905,2.024 98.226,1.742 97.024,0.692 96.69,1.419 95.95,3.033 93.893,-2.518 93.635,1.482 93.564,2.583 92.221,1.87 91.707,1.224 90.975,0.311 89.65,1.998 88.804,1.772 87.303,1.369 86.415,2.896 85.662,2.645 84.504,2.257 81.327,-0.791 79.874,2.257 c -1.414,2.969 2.314,1.033 1.93,2.969 -0.387,1.935 1.801,3.225 0.643,4.516 -1.159,1.292 -5.53,2.066 -8.358,-0.129 -2.83,-2.193 -4.245,1.935 -4.76,4.128 -0.516,2.195 4.116,1.68 4.76,2.971 0.643,1.288 5.399,-0.904 8.616,0.514 3.213,1.421 -2.701,1.292 -2.959,2.454 -0.254,1.161 2.701,-0.26 3.471,1.548 0.774,1.805 2.061,0 4.117,1.676 2.057,1.68 3.729,0.388 5.53,-0.514 1.8,-0.905 4.116,1.288 3.86,2.58 -0.257,1.29 -1.674,0.902 -2.831,2.193 -1.156,1.292 -2.83,-2.193 -4.63,0.645 -1.799,2.84 3.474,0.129 4.244,1.809 0.771,1.676 2.443,1.417 2.83,2.062 0.387,0.646 -2.701,2.71 -4.5,3.616 -1.801,0.902 -3.217,1.935 -6.303,1.419 -3.085,-0.517 1.543,-4.518 -2.316,-4.904 -1.158,-0.118 -3.984,-1.033 -3.728,-2.711 0.257,-1.68 -5.272,-7.356 -6.815,-8.646 -1.543,-1.292 0.386,5.034 -1.801,4.904 C 68.688,25.226 65.86,20.839 62,18.13 c -1.82,-1.281 -3.729,-0.389 -5.388,-0.971 -0.893,-0.315 -2.405,1.75 -2.643,0.787 -0.971,-3.946 -2.127,1.088 -2.77,0.571 -0.991,-0.794 -1.496,1.534 -2.702,0.645 -0.984,-0.723 -1.089,1.632 -1.285,3.615 -0.384,3.872 -2.056,1.548 -6.044,2.193 -3.987,0.645 -3.987,5.034 -3.729,6.582 0.258,1.548 -0.643,2.838 -2.958,1.935 -2.316,-0.902 0.13,-2.838 -1.93,-3.612 -2.058,-0.774 -6.945,5.421 -6.945,6.841 0,1.417 3.859,-0.774 6.045,2.452 1.287,1.898 5.272,-0.388 6.688,1.031 1.414,1.419 5.529,-1.678 6.688,-3.098 1.156,-1.419 3.729,-1.678 5.529,-1.937 1.802,-0.257 2.057,2.968 2.057,4.002 0,1.031 3.346,0.257 2.188,3.356 -0.488,1.299 -1.932,1.031 -7.331,1.419 -5.402,0.387 1.159,2.064 0.901,3.354 -0.258,1.292 -5.018,0.774 -6.303,2.323 -1.286,1.55 4.244,4.904 6.174,5.678 1.926,0.774 6.944,-3.613 8.102,-2.323 1.158,1.292 1.801,3.355 3.857,5.034 2.057,1.68 2.958,2.064 0,5.033 -2.958,2.968 -7.717,-0.774 -7.717,-0.774 -3.085,-0.647 -4.758,-2.323 -6.557,0.388 -1.114,1.676 -0.515,4.128 -2.058,5.291 -1.543,1.162 -2.812,-2.196 -5.143,-1.937 -4.34,0.485 -4.147,-3.579 -6.174,-4.259 -1.281,-0.428 -5.569,3.878 -5.406,-1.079 0.198,-5.986 -3.159,0.055 -4.241,-0.856 -2.411,-2.033 -4.146,2.711 -5.29,-0.584 -0.447,-1.279 -2.585,0.558 -3.453,1.1 -2.058,1.29 0,5.163 -2.186,5.292 -2.185,0.13 -1.543,1.289 -3.086,2.711 -1.543,1.418 0,3.097 -0.903,3.742 -0.898,0.645 -0.735,2.647 -0.256,2.968 1.159,0.774 1.415,-3.872 2.829,-0.774 1.416,3.097 -3.471,3.872 -4.244,2.711 -0.77,-1.163 -1.797,-4.518 -2.571,-1.163 -0.614,2.667 -3.986,3.615 -3.731,4.904 0.503,2.511 3.731,0.387 5.917,-0.388 2.187,-0.774 2.057,3.229 2.057,5.808 0,2.582 2.961,1.807 3.73,2.452 0.771,0.646 1.928,1.548 3.344,1.679 1.412,0.129 2.828,-2.453 0.127,-2.841 -2.699,-0.384 0,-2.321 -3.086,-2.064 -3.086,0.258 -1.285,-2.709 -0.512,-1.806 0.77,0.902 3.598,0.257 5.914,0.645 2.315,0.386 2.829,3.742 4.887,3.613 1.035,-0.064 2.315,-0.26 2.444,1.16 0.127,1.422 -1.159,3.614 -0.385,3.873 0.501,0.168 0.77,-2.324 2.698,-2.969 1.932,-0.644 1.416,2.84 1.803,4.775 0.383,1.936 -1.93,0.26 -2.188,2.969 -0.256,2.711 1.416,1.678 2.83,0.645 3.861,-2.816 2.701,1.808 4.758,2.066 3.881,0.486 2.955,-2.453 5.272,-2.97 2.316,-0.516 3.601,-1.29 4.758,-2.323 1.158,-1.033 3.473,-1.289 5.658,0.775 2.186,2.064 2.958,2.451 4.632,1.678 2.23,-1.033 1.798,1.807 0.898,2.84 -0.898,1.033 -6.171,0.772 -9.002,0.387 -2.826,-0.387 -4.885,2.194 -3.469,2.451 1.412,0.26 3.469,1.549 1.797,2.324 -1.67,0.773 -1.285,2.321 -2.956,2.192 -1.672,-0.13 -3.475,-3.872 -5.402,0.517 -1.927,4.388 3.344,7.228 7.459,5.68 4.116,-1.549 5.401,-0.131 5.917,1.418 0.514,1.549 5.4,2.775 5.4,2.775 2.315,5.033 -2.122,0.967 -3.473,0.579 -1.351,-0.387 -2.894,2.713 -5.787,2.325 -2.894,-0.389 -3.858,0.969 -3.086,1.549 0.773,0.58 2.317,2.127 0,3.097 -2.314,0.967 -1.156,3.678 -2.314,4.839 -1.156,1.162 -0.579,3.099 1.542,3.099 2.122,0 1.351,41.234 1.351,41.234 h 155.449 c 0,0 -3.379,-42.976 -2.225,-44.524 1.158,-1.549 2.445,-1.422 1.416,-4.777 -1.028,-3.355 -3.473,0.904 -4.502,-2.451 -1.028,-3.354 -3.859,-0.904 -4.759,-3.483 -0.899,-2.582 3.088,-1.03 4.244,-1.679 1.157,-0.645 2.316,2.709 3.988,2.582 1.67,-0.129 3.856,1.547 5.015,0.258 1.157,-1.291 -1.286,-1.936 -2.443,-3.615 -1.159,-1.676 1.672,-1.676 2.829,-0.645 1.157,1.033 1.673,0.518 3.985,0.645 2.316,0.131 3.086,2.969 3.986,1.936 0.9,-1.03 -1.799,-1.675 0.9,-3.484 2.701,-1.806 2.572,-0.256 4.889,-0.127 2.314,0.127 2.57,-3.484 3.473,-5.291 0.9,-1.809 0.512,-2.584 -1.158,-3.355 -1.674,-0.774 -2.186,0.771 -2.959,-1.678 -0.77,-2.455 -2.186,-2.84 -3.856,-2.193 -1.673,0.645 -5.401,-0.389 -5.274,-2.195 0.13,-1.808 -3.214,-2.453 -5.271,-2.709 -2.058,-0.259 -4.115,-0.389 -4.502,-2.195 -0.387,-1.808 -1.285,-2.193 -3.342,-2.193 -2.059,0 -2.7,0.645 -4.244,-1.42 -1.543,-2.065 -3.732,-1.162 -5.402,0.258 -1.672,1.419 -0.771,2.968 -2.701,3.484 -1.928,0.518 -2.443,-2.582 -0.642,-4 1.8,-1.421 2.7,-0.903 1.671,-2.582 -1.029,-1.678 0,-1.162 0.9,-2.838 0.898,-1.677 2.699,-0.517 2.83,1.419 0.128,1.935 3.215,1.031 4.63,0.903 1.412,-0.129 3.344,-0.903 3.602,0.774 0.256,1.678 1.928,1.162 4.63,0.128 2.699,-1.031 5.529,2.195 6.557,2.453 1.031,0.258 0.643,-1.679 2.186,-3.228 1.199,-1.199 -1.155,-0.646 -1.799,-2.58 -0.645,-1.937 1.283,-2.194 3.857,-0.388 2.572,1.807 1.414,3.355 2.828,4.002 1.416,0.645 3.217,2.709 5.914,0 2.701,-2.71 2.701,-0.518 5.402,-2.195 2.701,-1.678 5.402,0 6.559,-1.678 1.158,-1.678 1.288,-1.419 4.888,0 3.6,1.419 2.314,-1.031 2.188,-5.937 -0.129,-4.904 2.058,-2.709 2.058,-4.516 0,-1.807 -1.672,-0.515 -2.057,-2.708 -0.389,-2.198 -2.705,-3.874 -5.276,-0.777 z"
        />
  </clipPath>
  <style>
	@keyframes treescale {
	  0%, 100% {
	    transform: scale(0.0);
	  }
	  7%, 90% {
	    transform: scale(0.4);
	  }
	  50% {
	    transform: scale(1);
	  }
	}
</style>
</svg>
